<svg viewBox="2 8 15 17" fill="none" xmlns="http://www.w3.org/2000/svg">

    <path d="M15.8278 14.8971C16.2763 14.672 16.5816 14.2545 16.5816 13.7404C16.5816 12.5423 15.4994 12.2845 14.5131 12.3014H11.8515H11.8363H10.3607V16.1269C10.3607 16.6824 10.1676 16.8748 9.82379 16.8748C9.45431 16.8748 9.24653 16.6664 9.24653 16.2879V15.7581H7.84326V16.0061C7.84326 17.2855 8.33221 18.1605 9.84728 18.1605C11.0831 18.1605 11.7365 17.6117 11.8363 16.5279V18.0403H14.585C15.8112 18.0403 16.8132 17.6227 16.8132 16.2561C16.8132 15.6054 16.4375 15.0748 15.8278 14.8971ZM13.3275 13.4583H14.4809C14.7941 13.4583 15.0905 13.5959 15.0905 14.0133C15.0905 14.4232 14.738 14.5599 14.4809 14.5599H13.3275V13.4583ZM14.5213 16.843H13.3275V15.524H14.5213C14.9705 15.524 15.3233 15.6934 15.3233 16.1987C15.3233 16.6737 14.9945 16.843 14.5213 16.843Z" fill="#CC0000"/>
    <path d="M13.7774 22.1259C13.7774 21.1564 12.9928 20.3687 12.0256 20.3687C11.0565 20.3687 10.2725 21.1564 10.2725 22.1259C10.2725 23.0972 11.0565 23.8833 12.0256 23.8833C12.9928 23.8833 13.7774 23.0972 13.7774 22.1259Z" fill="#CC0000"/>
    <path d="M9.12221 21.5715C9.12221 20.7125 8.42711 20.0156 7.56982 20.0156C6.71266 20.0156 6.01807 20.7124 6.01807 21.5715C6.01807 22.4313 6.71254 23.1284 7.56982 23.1284C8.42711 23.1284 9.12221 22.4313 9.12221 21.5715Z" fill="#CC0000"/>
    <path d="M5.61526 18.7595C5.61526 17.9837 4.98913 17.3545 4.21451 17.3545C3.43964 17.3545 2.8125 17.9837 2.8125 18.7595C2.8125 19.5373 3.43964 20.1666 4.21451 20.1666C4.98901 20.1666 5.61526 19.5373 5.61526 18.7595Z" fill="#CC0000"/>
    <path d="M4.96466 14.8455C4.96466 14.1517 4.40499 13.5911 3.71403 13.5911C3.02321 13.5911 2.4624 14.1516 2.4624 14.8455C2.4624 15.5384 3.02321 16.1009 3.71403 16.1009C4.40499 16.1009 4.96466 15.5383 4.96466 14.8455Z" fill="#CC0000"/>
    <path d="M6.71886 11.3308C6.71886 10.7488 6.247 10.2767 5.6671 10.2767C5.08683 10.2767 4.61572 10.7488 4.61572 11.3308C4.61572 11.9133 5.08683 12.385 5.6671 12.385C6.247 12.385 6.71886 11.9133 6.71886 11.3308Z" fill="#CC0000"/>
    <path d="M9.72097 9.77409C9.72097 9.24744 9.29572 8.82019 8.77047 8.82019C8.24534 8.82019 7.81934 9.24744 7.81934 9.77409C7.81934 10.3016 8.24547 10.7289 8.77047 10.7289C9.29584 10.7289 9.72097 10.3016 9.72097 9.77409Z" fill="#CC0000"/>
    <path d="M12.8758 9.27173C12.8758 8.82798 12.5179 8.46826 12.0751 8.46826C11.6333 8.46826 11.2739 8.82798 11.2739 9.27173C11.2739 9.71598 11.6333 10.0756 12.0751 10.0756C12.5179 10.0756 12.8758 9.71598 12.8758 9.27173Z" fill="#CC0000"/>
</svg>
