<svg
   width="750"
   height="800"
   viewBox="0 0 15 16"
   fill="#000000"
   class="bi bi-journal-text"
   version="1.1"
   id="svg683"
   sodipodi:docname="couchbase.svg"
   inkscape:version="1.2.2 (b0a84865, 2022-12-01)"
   xmlns:inkscape="http://www.inkscape.org/namespaces/inkscape"
   xmlns:sodipodi="http://sodipodi.sourceforge.net/DTD/sodipodi-0.dtd"
   xmlns="http://www.w3.org/2000/svg"
   xmlns:svg="http://www.w3.org/2000/svg">
  <defs
     id="defs687" />
  <sodipodi:namedview
     id="namedview685"
     pagecolor="#ffffff"
     bordercolor="#000000"
     borderopacity="0.25"
     inkscape:showpageshadow="2"
     inkscape:pageopacity="0.0"
     inkscape:pagecheckerboard="0"
     inkscape:deskcolor="#d1d1d1"
     showgrid="false"
     inkscape:zoom="0.295"
     inkscape:cx="400"
     inkscape:cy="400"
     inkscape:window-width="1309"
     inkscape:window-height="456"
     inkscape:window-x="0"
     inkscape:window-y="38"
     inkscape:window-maximized="0"
     inkscape:current-layer="svg683" />
  <path
     d="M 5,10.5 A 0.5,0.5 0 0 1 5.5,10 h 2 a 0.5,0.5 0 0 1 0,1 h -2 A 0.5,0.5 0 0 1 5,10.5 Z m 0,-2 A 0.5,0.5 0 0 1 5.5,8 h 5 a 0.5,0.5 0 0 1 0,1 h -5 A 0.5,0.5 0 0 1 5,8.5 Z m 0,-2 A 0.5,0.5 0 0 1 5.5,6 h 5 a 0.5,0.5 0 0 1 0,1 h -5 A 0.5,0.5 0 0 1 5,6.5 Z m 0,-2 A 0.5,0.5 0 0 1 5.5,4 h 5 a 0.5,0.5 0 0 1 0,1 h -5 A 0.5,0.5 0 0 1 5,4.5 Z"
     id="path677" />
  <path
     d="m 3,0 h 10 a 2,2 0 0 1 2,2 v 12 a 2,2 0 0 1 -2,2 H 3 A 2,2 0 0 1 1,14 v -1 h 1 v 1 a 1,1 0 0 0 1,1 h 10 a 1,1 0 0 0 1,-1 V 2 A 1,1 0 0 0 13,1 H 3 A 1,1 0 0 0 2,2 V 3 H 1 V 2 A 2,2 0 0 1 3,0 Z"
     id="path679" />
  <path
     d="M 1,5 V 4.5 a 0.5,0.5 0 0 1 1,0 V 5 h 0.5 a 0.5,0.5 0 0 1 0,1 h -2 a 0.5,0.5 0 0 1 0,-1 z M 1,8 V 7.5 a 0.5,0.5 0 0 1 1,0 V 8 h 0.5 a 0.5,0.5 0 0 1 0,1 h -2 a 0.5,0.5 0 0 1 0,-1 z m 0,3 v -0.5 a 0.5,0.5 0 0 1 1,0 V 11 h 0.5 a 0.5,0.5 0 0 1 0,1 h -2 a 0.5,0.5 0 0 1 0,-1 z"
     id="path681" />
</svg>