<?xml version="1.0" encoding="UTF-8" standalone="no"?>
<svg
   width="96"
   height="96"
   viewBox="0 0 96 96"
   fill="none"
   version="1.1"
   id="svg17"
   sodipodi:docname="w3c.svg"
   inkscape:version="1.2.2 (b0a84865, 2022-12-01)"
   xmlns:inkscape="http://www.inkscape.org/namespaces/inkscape"
   xmlns:sodipodi="http://sodipodi.sourceforge.net/DTD/sodipodi-0.dtd"
   xmlns="http://www.w3.org/2000/svg"
   xmlns:svg="http://www.w3.org/2000/svg">
  <defs
     id="defs21">
    <rect
       x="-98.847459"
       y="-97.62712"
       width="110.23729"
       height="44.745763"
       id="rect650" />
    <rect
       x="-255.45763"
       y="4.4745763"
       width="130.98305"
       height="70.372882"
       id="rect367" />
    <rect
       x="-260.33898"
       y="-91.525424"
       width="125.28814"
       height="93.966101"
       id="rect187" />
    <rect
       x="142.77966"
       y="18.711864"
       width="83.79661"
       height="35.389831"
       id="rect127" />
  </defs>
  <sodipodi:namedview
     id="namedview19"
     pagecolor="#ffffff"
     bordercolor="#000000"
     borderopacity="0.25"
     inkscape:showpageshadow="2"
     inkscape:pageopacity="0.0"
     inkscape:pagecheckerboard="0"
     inkscape:deskcolor="#d1d1d1"
     showgrid="false"
     inkscape:zoom="2.4583333"
     inkscape:cx="66.508475"
     inkscape:cy="48.20339"
     inkscape:window-width="1920"
     inkscape:window-height="1027"
     inkscape:window-x="1728"
     inkscape:window-y="25"
     inkscape:window-maximized="0"
     inkscape:current-layer="text825" />
  <path
     d="M95.974 43.876C95.962 43.694 95.928 43.52 95.868 43.348C95.846 43.284 95.83 43.222 95.802 43.16C95.706 42.952 95.584 42.756 95.416 42.59C95.414 42.588 95.414 42.588 95.414 42.588L84 31.172V20C84 19.956 83.978 19.918 83.974 19.874C83.962 19.698 83.928 19.528 83.872 19.36C83.85 19.296 83.834 19.234 83.804 19.172C83.706 18.96 83.584 18.758 83.412 18.586L65.412 0.586C65.24 0.414 65.038 0.29 64.824 0.194C64.764 0.166 64.704 0.15 64.642 0.13C64.472 0.07 64.298 0.036 64.116 0.026C64.078 0.02 64.042 0 64 0H14C12.896 0 12 0.896 12 2V31.172L0.586 42.586C0.586 42.586 0.584 42.588 0.582 42.59C0.414 42.758 0.294 42.954 0.198 43.16C0.17 43.222 0.154 43.284 0.132 43.348C0.072 43.52 0.036 43.694 0.026 43.876C0.022 43.92 0 43.956 0 44V82C0 83.104 0.896 84 2 84H12V94C12 95.104 12.896 96 14 96H82C83.104 96 84 95.104 84 94V84H94C95.104 84 96 83.104 96 82V44C96 43.956 95.978 43.92 95.974 43.876ZM89.172 42H84V36.828L89.172 42ZM77.172 18H66V6.828L77.172 18ZM16 4H62V20C62 21.104 62.896 22 64 22H80V32V42H16V32V4ZM12 36.828V42H6.828L12 36.828ZM80 92H16V84H80V92ZM92 80H4V46H14H82H92V80Z"
     fill="black"
     id="path9" />
  <text
     xml:space="preserve"
     id="text125"
     style="font-size:13.5322px;font-family:'Apple Symbols';-inkscape-font-specification:'Apple Symbols, Normal';white-space:pre;shape-inside:url(#rect127);display:inline;fill:#000000" />
  <text
     xml:space="preserve"
     id="text365"
     style="font-weight:bold;font-stretch:condensed;font-size:13.5322px;font-family:'Nunito Sans 7pt Condensed';-inkscape-font-specification:'Nunito Sans 7pt Condensed, Bold Condensed';white-space:pre;shape-inside:url(#rect367);display:inline;fill:#000000" />
  <text
     xml:space="preserve"
     id="text648"
     style="font-weight:bold;font-stretch:condensed;font-size:13.5322px;font-family:'Nunito Sans 7pt Condensed';-inkscape-font-specification:'Nunito Sans 7pt Condensed, Bold Condensed';white-space:pre;shape-inside:url(#rect650);display:inline;fill:#000000" />
  <g
     aria-label="W3C"
     transform="scale(0.92259833,1.0838953)"
     id="text825"
     style="font-weight:bold;font-stretch:condensed;font-size:33.5745px;font-family:'Nunito Sans 7pt Condensed';-inkscape-font-specification:'Nunito Sans 7pt Condensed, Bold Condensed';fill:#000000;stroke-width:1.25904">
    <path
       d="M 25.385653,70.135651 19.510115,46.465627 h 4.465409 L 27.60157,64.76373 h 0.268596 l 4.465409,-18.298103 h 3.223152 l 4.532557,18.331678 h 0.201447 l 3.659621,-18.331678 h 4.230387 L 42.307201,70.135651 H 38.34541 L 33.980725,52.408314 h -0.235021 l -4.498983,17.727337 z"
       id="path508" />
    <path
       d="m 57.214216,70.471396 q -1.242256,0 -2.484513,-0.302171 -1.208682,-0.268596 -2.283066,-0.805788 -1.074384,-0.537192 -1.880172,-1.34298 l 1.309406,-3.156003 q 1.107958,1.007235 2.484513,1.544427 1.376554,0.537192 2.652385,0.537192 1.074385,0 1.913747,-0.369319 0.839363,-0.402894 1.309406,-1.175108 0.503617,-0.772214 0.503617,-1.947321 0,-1.813023 -0.97366,-2.68596 -0.940086,-0.872937 -2.652386,-0.872937 h -3.05528 v -3.424599 h 2.618811 q 1.074385,0 1.880173,-0.402894 0.805788,-0.436469 1.242256,-1.242257 0.470043,-0.839362 0.470043,-2.01447 0,-1.64515 -0.872937,-2.383789 -0.839362,-0.772214 -2.316641,-0.772214 -1.175107,0 -2.484513,0.537192 -1.309405,0.503618 -2.417364,1.645151 l -1.309405,-3.156004 q 1.242256,-1.275831 3.055279,-1.913746 1.846598,-0.637916 3.760344,-0.637916 2.014471,0 3.458174,0.738639 1.443704,0.738639 2.249492,2.115194 0.805788,1.376555 0.805788,3.256727 0,2.01447 -0.839363,3.491748 -0.839362,1.477278 -2.383789,2.182342 v 0.100724 q 1.040809,0.335745 1.880172,1.074384 0.839362,0.738639 1.34298,1.846597 0.503617,1.107959 0.503617,2.68596 0,2.115194 -0.97366,3.659621 -0.940086,1.510853 -2.618811,2.350215 -1.645151,0.839363 -3.894643,0.839363 z"
       id="path510" />
    <path
       d="m 77.896081,70.50497 q -2.920981,0 -5.069749,-1.410129 -2.115194,-1.410129 -3.290301,-4.129664 -1.141533,-2.719534 -1.141533,-6.681325 0,-3.961791 1.141533,-6.681326 1.175107,-2.719535 3.290301,-4.096089 2.148768,-1.376555 5.069749,-1.376555 2.115194,0 3.760344,0.570767 1.678725,0.537192 2.887408,1.813023 l -1.275832,3.256727 q -1.175107,-1.074384 -2.383789,-1.510853 -1.208682,-0.436468 -2.652386,-0.436468 -2.618811,0 -4.096089,2.01447 -1.443703,1.980895 -1.443703,6.412729 0,4.465409 1.443703,6.513453 1.443704,2.014471 4.096089,2.014471 1.443704,0 2.618811,-0.436469 1.208682,-0.436468 2.417364,-1.510853 l 1.275832,3.256727 q -1.242257,1.242257 -2.887408,1.846598 -1.64515,0.570766 -3.760344,0.570766 z"
       id="path512" />
  </g>
</svg>
