<?xml version="1.0" encoding="UTF-8" standalone="no"?>
<!DOCTYPE svg PUBLIC "-//W3C//DTD SVG 1.1//EN" "http://www.w3.org/Graphics/SVG/1.1/DTD/svg11.dtd">
<svg height="100%" stroke-miterlimit="10" style="fill-rule:nonzero;clip-rule:evenodd;stroke-linecap:round;stroke-linejoin:round;" version="1.1" viewBox="0 0 800.55 856.85" width="100%" xml:space="preserve" xmlns="http://www.w3.org/2000/svg" xmlns:xlink="http://www.w3.org/1999/xlink">
<defs/>
<g id="Untitled">
<path d="M670.38 608.27L599.14 561.28L539.71 660.55L470.59 640.34L409.73 733.23L412.85 762.47L743.75 701.5L724.53 494.75L670.38 608.27ZM361.79 519.13L414.88 511.83C423.47 515.69 429.45 517.16 439.75 519.78C455.79 523.96 474.36 527.97 501.86 514.11C508.26 510.94 521.59 498.75 526.98 491.8L744.5 452.34L766.69 720.9L394.04 788.06L361.79 519.13ZM765.85 422.36L744.38 426.45L703.13 0.27L0.27 81.77L86.86 784.45L169.13 772.51C162.56 763.13 152.33 751.78 134.86 737.25C110.63 717.12 119.2 682.93 133.49 661.34C152.4 624.86 249.83 578.5 244.31 520.19C242.33 498.99 238.96 471.39 219.28 452.48C218.54 460.33 219.87 467.89 219.87 467.89C219.87 467.89 211.79 457.58 207.76 443.52C203.76 438.13 200.62 436.41 196.37 429.21C193.34 437.54 193.74 447.2 193.74 447.2C193.74 447.2 187.13 431.58 186.06 418.4C182.14 424.3 181.15 435.51 181.15 435.51C181.15 435.51 172.56 410.89 174.52 397.63C170.6 386.09 158.98 363.19 162.27 311.14C183.72 326.17 230.94 322.6 249.34 295.48C255.45 286.5 259.63 261.98 246.29 213.67C237.72 182.69 216.5 136.56 208.23 119.06L207.24 119.77C211.6 133.87 220.59 163.43 224.04 177.76C234.48 221.23 237.28 236.36 232.38 256.4C228.21 273.82 218.21 285.22 192.86 297.96C167.51 310.74 133.87 279.64 131.74 277.92C107.11 258.3 88.06 226.29 85.93 210.74C83.72 193.72 95.74 183.5 101.8 169.58C93.13 172.06 83.46 176.46 83.46 176.46C83.46 176.46 95 164.52 109.23 154.19C115.12 150.29 118.58 147.81 124.79 142.65C115.8 142.5 108.5 142.76 108.5 142.76C108.5 142.76 123.49 134.66 139.03 128.76C127.66 128.26 116.78 128.68 116.78 128.68C116.78 128.68 150.23 113.72 176.65 102.74C194.82 95.29 212.57 97.49 222.54 111.91C235.63 130.8 249.38 141.06 278.52 147.42C296.41 139.49 301.85 135.41 324.33 129.29C344.12 107.53 359.66 104.71 359.66 104.71C359.66 104.71 351.95 111.78 349.89 122.89C361.11 114.05 373.41 106.67 373.41 106.67C373.41 106.67 368.65 112.55 364.21 121.89L365.24 123.42C378.33 115.57 393.72 109.38 393.72 109.38C393.72 109.38 389.32 114.94 384.16 122.14C394.03 122.06 414.05 122.56 421.82 123.44C467.69 124.45 477.21 74.45 494.81 68.18C516.85 60.31 526.7 55.55 564.26 92.44C596.49 124.11 621.67 180.8 609.17 193.5C598.69 204.04 578.01 189.39 555.09 160.82C542.98 145.69 533.82 127.81 529.53 105.08C525.91 85.9 511.82 74.77 511.82 74.77C511.82 74.77 520 92.95 520 109.01C520 117.78 521.1 150.57 535.16 168.97C533.77 171.66 533.12 182.28 531.58 184.31C515.22 164.54 480.09 150.39 474.36 146.22C493.75 162.11 538.32 198.61 555.44 233.59C571.63 266.67 562.09 296.99 570.28 304.84C572.61 307.09 605.1 347.57 611.35 367.91C622.25 403.36 612 440.61 597.73 463.72L557.88 469.93C552.05 468.31 548.12 467.5 542.89 464.47C545.77 459.37 551.5 446.65 551.56 444.03L549.31 440.08C536.91 457.65 516.13 474.71 498.87 484.51C476.28 497.31 450.24 495.34 433.29 490.09C385.18 475.25 339.69 442.74 328.72 434.2C328.72 434.2 328.38 441.02 330.45 442.55C342.58 456.23 370.37 480.98 397.23 498.23L339.97 504.53L367.04 715.31C355.04 717.03 353.17 717.87 340.03 719.74C328.45 678.83 306.3 652.12 282.09 636.56C260.74 622.84 231.29 619.75 203.1 625.33L201.29 627.43C220.89 625.39 244.03 628.23 267.8 643.28C291.13 658.03 309.93 696.13 316.85 719.07C325.71 748.39 331.84 779.75 307.99 812.99C291.02 836.62 241.48 849.68 201.46 821.43C212.15 838.62 226.6 852.68 246.05 855.33C274.93 859.25 302.34 854.24 321.21 834.87C337.32 818.31 345.86 783.68 343.61 747.21L369.1 743.51L378.3 808.97L800.28 758.16L765.85 422.36ZM509.12 244.59C507.94 247.28 506.09 249.04 508.87 257.79L509.04 258.29L509.48 259.42L510.64 262.04C515.65 272.28 521.15 281.94 530.34 286.87C532.72 286.47 535.18 286.2 537.73 286.07C546.36 285.69 551.81 287.06 555.27 288.92C555.58 287.2 555.65 284.68 555.46 280.97C554.79 268 558.03 245.94 533.1 234.33C523.69 229.96 510.49 231.31 506.09 236.76C506.89 236.86 507.61 237.03 508.17 237.22C514.82 239.55 510.31 241.84 509.12 244.59M578.99 365.61C575.72 363.81 560.44 364.52 549.7 365.8C529.24 368.21 507.15 375.31 502.31 379.09C493.51 385.89 497.51 397.75 504.01 402.62C522.24 416.24 538.22 425.37 555.09 423.15C565.45 421.79 574.58 405.39 581.05 390.51C585.48 380.26 585.48 369.2 578.99 365.61M397.85 260.65C403.62 255.17 369.11 247.97 342.33 266.23C322.58 279.7 321.95 308.58 340.86 324.95C342.75 326.57 344.31 327.72 345.77 328.66C351.29 326.06 357.58 323.43 364.82 321.08C377.05 317.11 387.22 315.06 395.58 313.97C399.58 309.5 404.23 301.63 403.07 287.38C401.49 268.05 386.84 271.12 397.85 260.65" fill="#632ca6" fill-rule="nonzero" opacity="1" stroke="none"/>
</g>
</svg>
