<svg id="Layer_1" data-name="Layer 1" xmlns="http://www.w3.org/2000/svg" viewBox="0 0 108 87.47">
    <defs><style>.cls-1{fill:#008996;}.cls-2{fill:#1dcad3;}.cls-3{fill:#212021;}</style></defs>
    <title>new_relic_logo_vertical</title>
    <path class="cls-1" d="M106.64,32.29C101.63,9.25,74-4.3,44.93,2S-3.65,32.14,1.36,55.18,34,91.77,63.07,85.45s48.58-30.12,43.57-53.16M52.05,72.5A29.38,29.38,0,1,1,81.42,43.12,29.38,29.38,0,0,1,52.05,72.5"/>
    <path class="cls-2" d="M59.37,6.72A37.6,37.6,0,1,0,97,44.31,37.59,37.59,0,0,0,59.37,6.72M52.05,72A28.9,28.9,0,1,1,81,43.12,28.9,28.9,0,0,1,52.05,72"/>
</svg>